<?xml version="1.0" encoding="utf-8"?>
<!-- Generator: Adobe Illustrator 25.4.1, SVG Export Plug-In . SVG Version: 6.00 Build 0)  -->
<svg version="1.1" id="Layer_1" xmlns="http://www.w3.org/2000/svg" xmlns:xlink="http://www.w3.org/1999/xlink" x="0px" y="0px"
	 viewBox="0 0 255.12 141.73" style="enable-background:new 0 0 255.12 141.73;" xml:space="preserve">
<style type="text/css">
	.st0{fill:#FFFFFF;stroke:#000000;stroke-width:6;stroke-miterlimit:10;}
	.st1{fill:#FFFFFF;}
	.st2{fill:#FFFFFF;stroke:#000000;stroke-width:0.25;stroke-miterlimit:10;}
</style>
<g>
	<g>
		<path d="M101.73,42.39c-1.47,0-2.74-0.45-3.78-1.36c-1.05-0.9-1.57-2.19-1.57-3.84c0-1.5,0.54-2.73,1.61-3.7
			c1.07-0.97,2.32-1.45,3.74-1.45c1.37,0,2.59,0.44,3.65,1.32c1.06,0.88,1.59,2.16,1.59,3.84c0,1.63-0.52,2.9-1.55,3.82
			C104.38,41.93,103.15,42.39,101.73,42.39z M106.97,53.33v30.61c0,2.12-0.5,3.72-1.51,4.81c-1.01,1.09-2.29,1.63-3.84,1.63
			s-2.81-0.56-3.78-1.67s-1.45-2.7-1.45-4.77v-30.3c0-2.1,0.48-3.67,1.45-4.73s2.23-1.59,3.78-1.59s2.83,0.53,3.84,1.59
			S106.97,51.44,106.97,53.33z"/>
		<path d="M152.63,41.42h-22.69v14.55h18.97c1.76,0,3.07,0.39,3.94,1.18c0.87,0.79,1.3,1.84,1.3,3.16s-0.44,2.37-1.32,3.14
			c-0.88,0.78-2.19,1.16-3.92,1.16h-18.97v18.74c0,2.38-0.54,4.14-1.61,5.29c-1.07,1.15-2.45,1.73-4.13,1.73
			c-1.71,0-3.1-0.58-4.17-1.75c-1.07-1.16-1.61-2.92-1.61-5.28V39.59c0-1.65,0.25-3.01,0.74-4.05c0.49-1.05,1.26-1.81,2.31-2.29
			c1.05-0.48,2.39-0.72,4.02-0.72h27.16c1.84,0,3.2,0.41,4.09,1.22c0.89,0.81,1.34,1.88,1.34,3.2c0,1.34-0.45,2.42-1.34,3.24
			C155.83,41.01,154.47,41.42,152.63,41.42z"/>
		<path d="M170.2,42.39c-1.47,0-2.73-0.45-3.78-1.36c-1.05-0.9-1.57-2.19-1.57-3.84c0-1.5,0.54-2.73,1.61-3.7s2.32-1.45,3.74-1.45
			c1.37,0,2.59,0.44,3.65,1.32c1.06,0.88,1.59,2.16,1.59,3.84c0,1.63-0.52,2.9-1.55,3.82C172.86,41.93,171.63,42.39,170.2,42.39z
			 M175.44,53.33v30.61c0,2.12-0.5,3.72-1.51,4.81c-1.01,1.09-2.29,1.63-3.84,1.63s-2.81-0.56-3.78-1.67s-1.46-2.7-1.46-4.77v-30.3
			c0-2.1,0.49-3.67,1.46-4.73s2.23-1.59,3.78-1.59s2.83,0.53,3.84,1.59S175.44,51.44,175.44,53.33z"/>
		<path d="M209.35,85.99l-7.68-11.29l-7.88,11.29c-1.14,1.58-2.1,2.7-2.89,3.38c-0.79,0.67-1.79,1.01-3.01,1.01
			c-1.35,0-2.49-0.42-3.43-1.26c-0.94-0.84-1.42-1.8-1.42-2.89c0-1.11,0.72-2.7,2.17-4.77l9.58-13.73l-8.5-11.44
			c-1.47-1.89-2.21-3.53-2.21-4.93c0-1.09,0.44-2.03,1.32-2.83c0.88-0.8,2.03-1.2,3.45-1.2c1.24,0,2.27,0.35,3.08,1.05
			s1.76,1.8,2.85,3.3l6.87,9.39l6.67-9.39c1.11-1.55,2.08-2.66,2.89-3.34c0.82-0.67,1.83-1.01,3.05-1.01c1.4,0,2.55,0.39,3.47,1.18
			c0.92,0.79,1.38,1.74,1.38,2.85c0,0.8-0.19,1.57-0.56,2.31c-0.38,0.74-0.95,1.61-1.73,2.62l-8.5,11.44l9.58,13.73
			c1.5,2.15,2.25,3.76,2.25,4.85c0,1.11-0.47,2.07-1.4,2.87c-0.93,0.8-2.08,1.2-3.45,1.2c-1.22,0-2.24-0.35-3.08-1.05
			C211.4,88.63,210.43,87.52,209.35,85.99z"/>
	</g>
	<g>
		<path d="M103.02,117.72l-3.68-14.64v15.87c0,0.88-0.2,1.54-0.59,1.98c-0.39,0.44-0.91,0.66-1.56,0.66c-0.63,0-1.14-0.22-1.54-0.65
			c-0.4-0.43-0.6-1.09-0.6-1.98v-18.19c0-1,0.26-1.68,0.78-2.03c0.52-0.35,1.23-0.53,2.12-0.53h1.44c0.87,0,1.5,0.08,1.89,0.24
			c0.39,0.16,0.68,0.44,0.87,0.85c0.19,0.41,0.4,1.07,0.64,1.99l3.34,12.59l3.34-12.59c0.24-0.92,0.45-1.58,0.64-1.99
			c0.19-0.41,0.48-0.69,0.87-0.85c0.39-0.16,1.02-0.24,1.89-0.24h1.44c0.89,0,1.59,0.17,2.12,0.53c0.52,0.35,0.78,1.03,0.78,2.03
			v18.19c0,0.88-0.2,1.54-0.59,1.98c-0.39,0.44-0.92,0.66-1.58,0.66c-0.62,0-1.12-0.22-1.52-0.66c-0.4-0.44-0.6-1.1-0.6-1.98v-15.87
			l-3.68,14.64c-0.24,0.95-0.44,1.65-0.59,2.09c-0.15,0.44-0.43,0.85-0.84,1.21c-0.41,0.37-0.97,0.55-1.69,0.55
			c-0.54,0-1-0.12-1.38-0.35c-0.38-0.24-0.67-0.54-0.88-0.9c-0.21-0.37-0.37-0.77-0.49-1.21S103.15,118.21,103.02,117.72z"/>
		<path d="M132.12,97.81c2.38,0,4.43,0.48,6.14,1.45c1.71,0.97,3,2.34,3.88,4.12c0.88,1.78,1.32,3.88,1.32,6.28
			c0,1.78-0.24,3.39-0.72,4.84c-0.48,1.45-1.2,2.71-2.16,3.78s-2.14,1.88-3.54,2.45c-1.4,0.56-3,0.85-4.81,0.85
			c-1.8,0-3.41-0.29-4.83-0.87c-1.42-0.58-2.61-1.4-3.56-2.45s-1.67-2.33-2.16-3.81c-0.49-1.48-0.73-3.09-0.73-4.81
			c0-1.77,0.25-3.39,0.76-4.86s1.24-2.73,2.2-3.76c0.96-1.03,2.13-1.83,3.51-2.38S130.36,97.81,132.12,97.81z M138.73,109.64
			c0-1.68-0.27-3.14-0.82-4.37c-0.54-1.23-1.32-2.17-2.33-2.8c-1.01-0.63-2.17-0.95-3.47-0.95c-0.93,0-1.79,0.17-2.58,0.53
			s-1.47,0.86-2.04,1.53c-0.57,0.67-1.02,1.52-1.35,2.56c-0.33,1.04-0.49,2.21-0.49,3.5c0,1.31,0.16,2.49,0.49,3.54
			c0.33,1.06,0.79,1.93,1.4,2.63c0.6,0.7,1.29,1.21,2.07,1.56c0.78,0.34,1.63,0.52,2.56,0.52c1.19,0,2.29-0.3,3.29-0.89
			c1-0.6,1.79-1.52,2.38-2.76C138.44,112.99,138.73,111.45,138.73,109.64z"/>
		<path d="M157.25,121.19h-7.02c-1.01,0-1.74-0.23-2.17-0.68c-0.43-0.46-0.65-1.18-0.65-2.17v-17.28c0-1.01,0.22-1.74,0.67-2.19
			c0.44-0.44,1.16-0.67,2.16-0.67h7.45c1.1,0,2.05,0.07,2.85,0.2c0.8,0.14,1.53,0.4,2.16,0.78c0.54,0.32,1.02,0.73,1.44,1.23
			c0.42,0.5,0.74,1.05,0.96,1.65c0.22,0.6,0.33,1.24,0.33,1.9c0,2.3-1.15,3.98-3.45,5.05c3.02,0.96,4.53,2.83,4.53,5.61
			c0,1.29-0.33,2.44-0.99,3.47s-1.55,1.79-2.67,2.28c-0.7,0.29-1.5,0.5-2.41,0.62C159.52,121.13,158.46,121.19,157.25,121.19z
			 M152.06,101.7v5.94h4.26c1.16,0,2.06-0.11,2.69-0.33c0.63-0.22,1.12-0.64,1.45-1.25c0.26-0.44,0.39-0.93,0.39-1.47
			c0-1.16-0.41-1.93-1.24-2.31c-0.83-0.38-2.08-0.57-3.78-0.57H152.06z M156.9,110.98h-4.84v6.71h5c3.15,0,4.72-1.13,4.72-3.4
			c0-1.16-0.41-2-1.22-2.52S158.52,110.98,156.9,110.98z"/>
		<path d="M170.71,118.74v-18.11c0-0.94,0.21-1.65,0.64-2.12c0.43-0.47,0.98-0.71,1.66-0.71c0.7,0,1.27,0.23,1.7,0.7
			s0.65,1.17,0.65,2.12v18.11c0,0.95-0.22,1.66-0.65,2.13s-1,0.71-1.7,0.71c-0.67,0-1.22-0.24-1.65-0.71
			S170.71,119.68,170.71,118.74z"/>
		<path d="M185.14,100.64v16.73h9.44c0.75,0,1.33,0.18,1.73,0.55s0.6,0.83,0.6,1.38c0,0.56-0.2,1.02-0.6,1.37
			c-0.4,0.35-0.98,0.53-1.74,0.53h-11.24c-1.01,0-1.74-0.22-2.19-0.67s-0.67-1.18-0.67-2.18v-17.7c0-0.94,0.21-1.65,0.63-2.12
			c0.42-0.47,0.98-0.71,1.67-0.71c0.7,0,1.27,0.23,1.7,0.7S185.14,99.69,185.14,100.64z"/>
		<path d="M215.11,101.8h-10.49v5.64h9.66c0.71,0,1.24,0.16,1.59,0.48c0.35,0.32,0.52,0.74,0.52,1.26s-0.17,0.95-0.52,1.28
			c-0.34,0.33-0.88,0.49-1.6,0.49h-9.66v6.54h10.85c0.73,0,1.28,0.17,1.65,0.51s0.56,0.79,0.56,1.36c0,0.54-0.19,0.99-0.56,1.32
			c-0.37,0.34-0.92,0.51-1.65,0.51h-12.65c-1.01,0-1.74-0.22-2.19-0.67s-0.67-1.18-0.67-2.18v-17.28c0-0.67,0.1-1.21,0.3-1.64
			c0.2-0.42,0.51-0.73,0.93-0.92c0.42-0.19,0.96-0.29,1.62-0.29h12.29c0.74,0,1.29,0.16,1.65,0.49c0.36,0.33,0.54,0.76,0.54,1.29
			c0,0.54-0.18,0.98-0.54,1.31C216.4,101.63,215.85,101.8,215.11,101.8z"/>
	</g>
	<g>
		<path class="st0" d="M23.59,79.64c1.53-0.92,3.08-1.88,4.64-2.89c0.8-0.52,1.59-1.03,2.37-1.55c1.2-0.9,2.8-1.02,4.07-0.31
			c1.82,1.01,1.91,3.1,1.91,3.2c0.96-1.2,1.92-2.41,2.89-3.61c1.95-0.14,5.28-0.63,8.92-2.53c3.86-2.01,6.25-4.67,7.48-6.24
			c0.52,0.34,1.03,0.69,1.55,1.03c3.2-1.86,6.39-3.71,9.59-5.57c0.52-0.98,1.45-2.42,2.99-3.76c2.05-1.79,4.17-2.52,5.36-2.84
			c-0.14-0.13-1.8-1.8-1.34-4.02c0.25-1.22,1.02-1.98,1.34-2.27c1.45-0.82,2.93-1.68,4.43-2.59c1.7-1.03,3.33-2.06,4.9-3.08
			c0.12-5.36,0.24-10.72,0.36-16.08c-0.05-0.44-0.28-2.15-1.75-3.51c-1.7-1.56-3.76-1.47-4.12-1.44c-14.95,0-29.9,0-44.85,0
			c-0.68,0.14-2.15,0.54-3.45,1.8c-2.13,2.07-2.12,4.8-2.11,5.31c-0.07,13.64-0.14,27.29-0.21,40.93c-0.88,0.6-2.89,2.15-4.07,4.95
			C23.57,76.7,23.54,78.59,23.59,79.64z"/>
	</g>
	<path d="M34.11,35.76c-0.26,11-0.51,22-0.77,32.99c1.03,0,2.44,0.11,4.04,0.55c1.66,0.46,2.95,1.12,3.85,1.67
		c9.21-5.6,18.42-11.2,27.63-16.81c-0.09-0.78-0.62-6.01,3.25-10.16c2.94-3.15,6.61-3.73,7.68-3.87c0.06-0.35,0.12-0.83,0.11-1.39
		c0-0.26-0.02-1.12-0.32-2.22c-0.17-0.61-0.33-1.19-0.74-1.86c-0.24-0.39-0.68-1.09-1.53-1.6c-1.05-0.63-2.11-0.61-2.58-0.57
		c-11.93,0-23.85,0-35.78,0c-0.37-0.03-1.96-0.1-3.35,1.03C34.62,34.35,34.24,35.34,34.11,35.76z"/>
	<path d="M51.43,25.4h11.24c0.66,0.16,1.13,0.76,1.13,1.44c0,0.68-0.47,1.28-1.13,1.44c-3.75,0-7.49,0-11.24,0
		c-0.58-0.15-1.03-0.6-1.13-1.13C50.16,26.44,50.62,25.66,51.43,25.4z"/>
	<path class="st1" d="M55.15,80.1"/>
	<path class="st0" d="M28.8,96.13c2.39-0.85,5.44-2.24,8.56-4.59c1.49-1.12,2.74-2.27,3.77-3.34c0.16-0.3,0.68-1.31,0.45-2.64
		c-0.26-1.5-1.29-2.33-1.53-2.52c1.22-0.11,2.43-0.21,3.65-0.32c1.22-1.85,3.53-4.85,7.37-7.37c3.45-2.26,6.73-3.22,8.82-3.66
		c-0.15-0.7-0.31-1.41-0.46-2.11c3.3-1.79,6.6-3.57,9.9-5.36c0.81,0,1.89-0.1,3.09-0.52c0.49-0.17,0.92-0.37,1.29-0.57
		c0.68-0.26,1.78-0.79,2.84-1.8c0.88-0.84,1.4-1.71,1.7-2.32c0.06,0.43,0.25,1.32,0.93,2.17c1.04,1.3,2.49,1.56,2.86,1.62
		c0.84-0.03,2.12-0.18,3.53-0.8c2.17-0.95,3.43-2.48,3.97-3.25c0.17,0.87,0.34,2.49-0.26,4.33c-1.1,3.36-3.94,4.88-4.59,5.21
		c0.12,17.29,0.24,34.58,0.36,51.86c-0.01,0.38-0.09,2.69-2.01,4.38c-1.67,1.48-3.61,1.5-4.07,1.5c-15.21,0-30.42,0-45.63,0
		c-0.67-0.28-1.84-0.87-2.84-2.06c-1.75-2.09-1.73-4.5-1.7-5.16C28.8,111.26,28.8,103.7,28.8,96.13z"/>
	<path d="M33.91,97.99v5.05c-0.03,0.24-0.19,1.88,1.03,3.2c1.38,1.49,3.32,1.26,3.51,1.24c11.75,0,23.51,0,35.26,0
		c0.53,0.04,2.23,0.11,3.82-1.03c2.44-1.75,2.39-4.79,2.38-5.05c0-10.59,0-21.17,0-31.76c-0.6,0.09-1.82,0.2-3.21-0.31
		c-1.77-0.64-2.75-1.88-3.09-2.37c-9.49,5.84-18.97,11.69-28.46,17.53c0.09,0.51,1,6.21-3.2,10.31
		C38.76,97.91,34.77,97.99,33.91,97.99z"/>
	<circle cx="56.54" cy="116.86" r="5.77"/>
	<g>
		<path class="st2" d="M23.59,79.64c1.53-0.92,3.08-1.88,4.64-2.89c0.8-0.52,1.59-1.03,2.37-1.55c1.2-0.9,2.8-1.02,4.07-0.31
			c1.82,1.01,1.91,3.1,1.91,3.2c0.96-1.2,1.92-2.41,2.89-3.61c1.95-0.14,5.28-0.63,8.92-2.53c3.86-2.01,6.25-4.67,7.48-6.24
			c0.52,0.34,1.03,0.69,1.55,1.03c3.2-1.86,6.39-3.71,9.59-5.57c0.52-0.98,1.45-2.42,2.99-3.76c2.05-1.79,4.17-2.52,5.36-2.84
			c-0.14-0.13-1.8-1.8-1.34-4.02c0.25-1.22,1.02-1.98,1.34-2.27c1.45-0.82,2.93-1.68,4.43-2.59c1.7-1.03,3.33-2.06,4.9-3.08
			c0.12-5.36,0.24-10.72,0.36-16.08c-0.05-0.44-0.28-2.15-1.75-3.51c-1.7-1.56-3.76-1.47-4.12-1.44c-14.95,0-29.9,0-44.85,0
			c-0.68,0.14-2.15,0.54-3.45,1.8c-2.13,2.07-2.12,4.8-2.11,5.31c-0.07,13.64-0.14,27.29-0.21,40.93c-0.88,0.6-2.89,2.15-4.07,4.95
			C23.57,76.7,23.54,78.59,23.59,79.64z"/>
	</g>
	<path d="M34.11,35.76c-0.26,11-0.51,22-0.77,32.99c1.03,0,2.44,0.11,4.04,0.55c1.66,0.46,2.95,1.12,3.85,1.67
		c9.21-5.6,18.42-11.2,27.63-16.81c-0.09-0.78-0.62-6.01,3.25-10.16c2.94-3.15,6.61-3.73,7.68-3.87c0.06-0.35,0.12-0.83,0.11-1.39
		c0-0.26-0.02-1.12-0.32-2.22c-0.17-0.61-0.33-1.19-0.74-1.86c-0.24-0.39-0.68-1.09-1.53-1.6c-1.05-0.63-2.11-0.61-2.58-0.57
		c-11.93,0-23.85,0-35.78,0c-0.37-0.03-1.96-0.1-3.35,1.03C34.62,34.35,34.24,35.34,34.11,35.76z"/>
	<path d="M51.43,25.4h11.24c0.66,0.16,1.13,0.76,1.13,1.44c0,0.68-0.47,1.28-1.13,1.44c-3.75,0-7.49,0-11.24,0
		c-0.58-0.15-1.03-0.6-1.13-1.13C50.16,26.44,50.62,25.66,51.43,25.4z"/>
	<path class="st1" d="M55.15,80.1"/>
	<path class="st2" d="M28.8,96.13c2.39-0.85,5.44-2.24,8.56-4.59c1.49-1.12,2.74-2.27,3.77-3.34c0.16-0.3,0.68-1.31,0.45-2.64
		c-0.26-1.5-1.29-2.33-1.53-2.52c1.22-0.11,2.43-0.21,3.65-0.32c1.22-1.85,3.53-4.85,7.37-7.37c3.45-2.26,6.73-3.22,8.82-3.66
		c-0.15-0.7-0.31-1.41-0.46-2.11c3.3-1.79,6.6-3.57,9.9-5.36c0.81,0,1.89-0.1,3.09-0.52c0.49-0.17,0.92-0.37,1.29-0.57
		c0.68-0.26,1.78-0.79,2.84-1.8c0.88-0.84,1.4-1.71,1.7-2.32c0.06,0.43,0.25,1.32,0.93,2.17c1.04,1.3,2.49,1.56,2.86,1.62
		c0.84-0.03,2.12-0.18,3.53-0.8c2.17-0.95,3.43-2.48,3.97-3.25c0.17,0.87,0.34,2.49-0.26,4.33c-1.1,3.36-3.94,4.88-4.59,5.21
		c0.12,17.29,0.24,34.58,0.36,51.86c-0.01,0.38-0.09,2.69-2.01,4.38c-1.67,1.48-3.61,1.5-4.07,1.5c-15.21,0-30.42,0-45.63,0
		c-0.67-0.28-1.84-0.87-2.84-2.06c-1.75-2.09-1.73-4.5-1.7-5.16C28.8,111.26,28.8,103.7,28.8,96.13z"/>
	<path d="M33.91,97.99v5.05c-0.03,0.24-0.19,1.88,1.03,3.2c1.38,1.49,3.32,1.26,3.51,1.24c11.75,0,23.51,0,35.26,0
		c0.53,0.04,2.23,0.11,3.82-1.03c2.44-1.75,2.39-4.79,2.38-5.05c0-10.59,0-21.17,0-31.76c-0.6,0.09-1.82,0.2-3.21-0.31
		c-1.77-0.64-2.75-1.88-3.09-2.37c-9.49,5.84-18.97,11.69-28.46,17.53c0.09,0.51,1,6.21-3.2,10.31
		C38.76,97.91,34.77,97.99,33.91,97.99z"/>
	<circle cx="56.54" cy="116.86" r="5.77"/>
</g>
</svg>
